<mxfile host="Electron" agent="Mozilla/5.0 (Windows NT 10.0; Win64; x64) AppleWebKit/537.36 (KHTML, like Gecko) draw.io/24.7.17 Chrome/128.0.6613.36 Electron/32.0.1 Safari/537.36" version="24.7.17" pages="2">
  <diagram name="Flow" id="4uxOnVY3-hE8810bfCbi">
    <mxGraphModel dx="1687" dy="984" grid="1" gridSize="10" guides="1" tooltips="1" connect="1" arrows="1" fold="1" page="1" pageScale="1" pageWidth="827" pageHeight="1169" math="0" shadow="0">
      <root>
        <mxCell id="0" />
        <mxCell id="1" parent="0" />
        <mxCell id="xSXoqG0I7g_AYLFNc4iy-2" value="&lt;div&gt;&lt;b&gt;&lt;br&gt;&lt;/b&gt;&lt;/div&gt;&lt;div style=&quot;&quot;&gt;&lt;span style=&quot;background-color: initial;&quot;&gt;&lt;b&gt;&amp;nbsp; &amp;nbsp; Notion&lt;/b&gt;&lt;/span&gt;&lt;/div&gt;&lt;div&gt;&lt;/div&gt;" style="rounded=0;whiteSpace=wrap;html=1;verticalAlign=top;align=left;" vertex="1" parent="1">
          <mxGeometry x="80" y="280" width="560" height="160" as="geometry" />
        </mxCell>
        <mxCell id="xSXoqG0I7g_AYLFNc4iy-17" style="edgeStyle=orthogonalEdgeStyle;rounded=0;orthogonalLoop=1;jettySize=auto;html=1;entryX=1;entryY=0.5;entryDx=0;entryDy=0;" edge="1" parent="1" source="xSXoqG0I7g_AYLFNc4iy-1" target="xSXoqG0I7g_AYLFNc4iy-16">
          <mxGeometry relative="1" as="geometry" />
        </mxCell>
        <mxCell id="xSXoqG0I7g_AYLFNc4iy-1" value="DOCS" style="rounded=0;whiteSpace=wrap;html=1;" vertex="1" parent="1">
          <mxGeometry x="840" y="180" width="120" height="60" as="geometry" />
        </mxCell>
        <mxCell id="xSXoqG0I7g_AYLFNc4iy-22" style="edgeStyle=orthogonalEdgeStyle;rounded=0;orthogonalLoop=1;jettySize=auto;html=1;" edge="1" parent="1" source="xSXoqG0I7g_AYLFNc4iy-3" target="xSXoqG0I7g_AYLFNc4iy-21">
          <mxGeometry relative="1" as="geometry" />
        </mxCell>
        <mxCell id="xSXoqG0I7g_AYLFNc4iy-3" value="English Expressions" style="rounded=0;whiteSpace=wrap;html=1;" vertex="1" parent="1">
          <mxGeometry x="450" y="330" width="120" height="60" as="geometry" />
        </mxCell>
        <mxCell id="xSXoqG0I7g_AYLFNc4iy-4" value="Questions&lt;div&gt;New Knowledges&lt;/div&gt;" style="rounded=0;whiteSpace=wrap;html=1;" vertex="1" parent="1">
          <mxGeometry x="150" y="330" width="120" height="60" as="geometry" />
        </mxCell>
        <mxCell id="xSXoqG0I7g_AYLFNc4iy-11" style="edgeStyle=orthogonalEdgeStyle;rounded=0;orthogonalLoop=1;jettySize=auto;html=1;strokeColor=#FF0000;" edge="1" parent="1" source="xSXoqG0I7g_AYLFNc4iy-5" target="xSXoqG0I7g_AYLFNc4iy-10">
          <mxGeometry relative="1" as="geometry" />
        </mxCell>
        <mxCell id="xSXoqG0I7g_AYLFNc4iy-5" value="Knowledge Brief" style="rounded=0;whiteSpace=wrap;html=1;" vertex="1" parent="1">
          <mxGeometry x="300" y="330" width="120" height="60" as="geometry" />
        </mxCell>
        <mxCell id="xSXoqG0I7g_AYLFNc4iy-6" value="LLM" style="rounded=0;whiteSpace=wrap;html=1;" vertex="1" parent="1">
          <mxGeometry x="80" y="80" width="560" height="60" as="geometry" />
        </mxCell>
        <mxCell id="xSXoqG0I7g_AYLFNc4iy-13" style="edgeStyle=orthogonalEdgeStyle;rounded=0;orthogonalLoop=1;jettySize=auto;html=1;entryX=0.5;entryY=0;entryDx=0;entryDy=0;strokeColor=#FF0000;" edge="1" parent="1" source="xSXoqG0I7g_AYLFNc4iy-7" target="xSXoqG0I7g_AYLFNc4iy-5">
          <mxGeometry relative="1" as="geometry" />
        </mxCell>
        <mxCell id="xSXoqG0I7g_AYLFNc4iy-15" style="edgeStyle=orthogonalEdgeStyle;rounded=0;orthogonalLoop=1;jettySize=auto;html=1;exitX=0.25;exitY=0;exitDx=0;exitDy=0;entryX=0.25;entryY=1;entryDx=0;entryDy=0;startArrow=classic;startFill=1;strokeColor=#FF0000;" edge="1" parent="1" source="xSXoqG0I7g_AYLFNc4iy-7" target="xSXoqG0I7g_AYLFNc4iy-6">
          <mxGeometry relative="1" as="geometry" />
        </mxCell>
        <mxCell id="xSXoqG0I7g_AYLFNc4iy-19" style="edgeStyle=orthogonalEdgeStyle;rounded=0;orthogonalLoop=1;jettySize=auto;html=1;exitX=0.75;exitY=0;exitDx=0;exitDy=0;entryX=0.75;entryY=1;entryDx=0;entryDy=0;startArrow=classic;startFill=1;" edge="1" parent="1" source="xSXoqG0I7g_AYLFNc4iy-7" target="xSXoqG0I7g_AYLFNc4iy-6">
          <mxGeometry relative="1" as="geometry" />
        </mxCell>
        <mxCell id="xSXoqG0I7g_AYLFNc4iy-7" value="StudySync" style="rounded=0;whiteSpace=wrap;html=1;" vertex="1" parent="1">
          <mxGeometry x="80" y="180" width="560" height="60" as="geometry" />
        </mxCell>
        <mxCell id="xSXoqG0I7g_AYLFNc4iy-9" style="edgeStyle=orthogonalEdgeStyle;rounded=0;orthogonalLoop=1;jettySize=auto;html=1;strokeColor=#FF0000;" edge="1" parent="1" source="xSXoqG0I7g_AYLFNc4iy-8" target="xSXoqG0I7g_AYLFNc4iy-4">
          <mxGeometry relative="1" as="geometry" />
        </mxCell>
        <mxCell id="xSXoqG0I7g_AYLFNc4iy-8" value="" style="sketch=0;outlineConnect=0;fontColor=#232F3E;gradientColor=none;fillColor=#232F3D;strokeColor=none;dashed=0;verticalLabelPosition=bottom;verticalAlign=top;align=center;html=1;fontSize=12;fontStyle=0;aspect=fixed;pointerEvents=1;shape=mxgraph.aws4.user;" vertex="1" parent="1">
          <mxGeometry x="171" y="520" width="78" height="78" as="geometry" />
        </mxCell>
        <mxCell id="xSXoqG0I7g_AYLFNc4iy-10" value="" style="sketch=0;outlineConnect=0;fontColor=#232F3E;gradientColor=none;fillColor=#232F3D;strokeColor=none;dashed=0;verticalLabelPosition=bottom;verticalAlign=top;align=center;html=1;fontSize=12;fontStyle=0;aspect=fixed;pointerEvents=1;shape=mxgraph.aws4.user;" vertex="1" parent="1">
          <mxGeometry x="321" y="520" width="78" height="78" as="geometry" />
        </mxCell>
        <mxCell id="xSXoqG0I7g_AYLFNc4iy-12" style="edgeStyle=orthogonalEdgeStyle;rounded=0;orthogonalLoop=1;jettySize=auto;html=1;fontColor=#FF0000;strokeColor=#FF0000;" edge="1" parent="1" source="xSXoqG0I7g_AYLFNc4iy-4">
          <mxGeometry relative="1" as="geometry">
            <mxPoint x="210" y="240" as="targetPoint" />
          </mxGeometry>
        </mxCell>
        <mxCell id="xSXoqG0I7g_AYLFNc4iy-18" style="edgeStyle=orthogonalEdgeStyle;rounded=0;orthogonalLoop=1;jettySize=auto;html=1;entryX=1;entryY=0.5;entryDx=0;entryDy=0;" edge="1" parent="1" source="xSXoqG0I7g_AYLFNc4iy-16" target="xSXoqG0I7g_AYLFNc4iy-7">
          <mxGeometry relative="1" as="geometry" />
        </mxCell>
        <mxCell id="xSXoqG0I7g_AYLFNc4iy-16" value="???" style="rounded=0;whiteSpace=wrap;html=1;" vertex="1" parent="1">
          <mxGeometry x="680" y="180" width="120" height="60" as="geometry" />
        </mxCell>
        <mxCell id="xSXoqG0I7g_AYLFNc4iy-21" value="" style="sketch=0;outlineConnect=0;fontColor=#232F3E;gradientColor=none;fillColor=#232F3D;strokeColor=none;dashed=0;verticalLabelPosition=bottom;verticalAlign=top;align=center;html=1;fontSize=12;fontStyle=0;aspect=fixed;pointerEvents=1;shape=mxgraph.aws4.user;" vertex="1" parent="1">
          <mxGeometry x="471" y="520" width="78" height="78" as="geometry" />
        </mxCell>
        <mxCell id="xSXoqG0I7g_AYLFNc4iy-23" style="edgeStyle=orthogonalEdgeStyle;rounded=0;orthogonalLoop=1;jettySize=auto;html=1;startArrow=classic;startFill=1;endArrow=none;endFill=0;" edge="1" parent="1" source="xSXoqG0I7g_AYLFNc4iy-3">
          <mxGeometry relative="1" as="geometry">
            <mxPoint x="510" y="240" as="targetPoint" />
          </mxGeometry>
        </mxCell>
      </root>
    </mxGraphModel>
  </diagram>
  <diagram id="j8rKGoeqASZbrjFxFAoM" name="Component">
    <mxGraphModel dx="1434" dy="836" grid="1" gridSize="10" guides="1" tooltips="1" connect="1" arrows="1" fold="1" page="1" pageScale="1" pageWidth="827" pageHeight="1169" math="0" shadow="0">
      <root>
        <mxCell id="0" />
        <mxCell id="1" parent="0" />
        <mxCell id="wEJinbj68vkaNiT-eIFz-1" value="Collector" style="rounded=0;whiteSpace=wrap;html=1;" vertex="1" parent="1">
          <mxGeometry x="200" y="480" width="120" height="40" as="geometry" />
        </mxCell>
        <mxCell id="wEJinbj68vkaNiT-eIFz-2" value="LLM Connector Interface (Plugin)" style="rounded=0;whiteSpace=wrap;html=1;" vertex="1" parent="1">
          <mxGeometry x="200" y="400" width="280" height="40" as="geometry" />
        </mxCell>
        <mxCell id="wEJinbj68vkaNiT-eIFz-3" value="Writer" style="rounded=0;whiteSpace=wrap;html=1;" vertex="1" parent="1">
          <mxGeometry x="360" y="480" width="120" height="40" as="geometry" />
        </mxCell>
        <mxCell id="wEJinbj68vkaNiT-eIFz-4" value="Note Interface (Plugin)" style="rounded=0;whiteSpace=wrap;html=1;" vertex="1" parent="1">
          <mxGeometry x="200" y="560" width="280" height="40" as="geometry" />
        </mxCell>
        <mxCell id="wEJinbj68vkaNiT-eIFz-6" value="LLM" style="ellipse;shape=cloud;whiteSpace=wrap;html=1;" vertex="1" parent="1">
          <mxGeometry x="200" y="280" width="290" height="80" as="geometry" />
        </mxCell>
        <mxCell id="wEJinbj68vkaNiT-eIFz-7" value="Note" style="ellipse;shape=cloud;whiteSpace=wrap;html=1;" vertex="1" parent="1">
          <mxGeometry x="200" y="640" width="290" height="80" as="geometry" />
        </mxCell>
      </root>
    </mxGraphModel>
  </diagram>
</mxfile>
